<?xml version="1.0" encoding="UTF-8" standalone="no"?>
<!-- Created with Inkscape (http://www.inkscape.org/) -->

<svg
   width="170.06453mm"
   height="48.126183mm"
   viewBox="0 0 170.06453 48.126183"
   version="1.1"
   id="svg1"
   xml:space="preserve"
   xmlns="http://www.w3.org/2000/svg"
   xmlns:svg="http://www.w3.org/2000/svg"><defs
     id="defs1" /><g
     id="g10"
     transform="translate(-27.719073,-59.500398)"><g
       id="g9"
       transform="translate(-16.193309)"><rect
         style="opacity:1;fill:#3454d1;fill-opacity:1;stroke:#3454d1;stroke-width:1.46246;stroke-dasharray:none;stroke-opacity:1"
         id="rect5"
         width="46.879299"
         height="46.663723"
         x="44.643612"
         y="60.231628"
         ry="14.171945" /><g
         id="g6"
         transform="translate(-1.0409453,-0.52047265)"><g
           style="fill:#3454d1;fill-opacity:1;stroke:#ffffff;stroke-width:1.17945;stroke-linecap:round;stroke-linejoin:round;stroke-dasharray:none;stroke-opacity:1"
           id="g5"
           transform="matrix(1.4342247,0,0,1.5144765,51.170933,65.532352)"><path
             d="m 4.5,16.5 c -1.5,1.26 -2,5 -2,5 0,0 3.74,-0.5 5,-2 0.71,-0.84 0.7,-2.13 -0.09,-2.91 A 2.18,2.18 0 0 0 4.5,16.5 Z"
             id="path1"
             style="fill:#3454d1;fill-opacity:1;stroke:#ffffff;stroke-width:1.17945;stroke-dasharray:none;stroke-opacity:1" /><path
             d="M 12,15 9,12 A 22,22 0 0 1 11,8.05 12.88,12.88 0 0 1 22,2 c 0,2.72 -0.78,7.5 -6,11 a 22.35,22.35 0 0 1 -4,2 z"
             id="path2"
             style="fill:#3454d1;fill-opacity:1;stroke:#ffffff;stroke-width:1.17945;stroke-dasharray:none;stroke-opacity:1" /><path
             d="M 9,12 H 4 c 0,0 0.55,-3.03 2,-4 1.62,-1.08 5,0 5,0"
             id="path3"
             style="fill:#3454d1;fill-opacity:1;stroke:#ffffff;stroke-width:1.17945;stroke-dasharray:none;stroke-opacity:1" /><path
             d="m 12,15 v 5 c 0,0 3.03,-0.55 4,-2 1.08,-1.62 0,-5 0,-5"
             id="path4"
             style="fill:#3454d1;fill-opacity:1;stroke:#ffffff;stroke-width:1.17945;stroke-dasharray:none;stroke-opacity:1" /></g><ellipse
           style="fill:#ffffff;fill-opacity:1;stroke:#ffffff;stroke-width:1.3741;stroke-dasharray:none;stroke-opacity:1"
           id="path5"
           cx="75.051262"
           cy="76.138039"
           rx="3.1484177"
           ry="3.1744156" /></g></g><text
       xml:space="preserve"
       style="font-style:normal;font-variant:normal;font-weight:600;font-stretch:normal;font-size:28.4271px;font-family:Poppins;-inkscape-font-specification:'Poppins Semi-Bold';text-align:center;writing-mode:lr-tb;direction:ltr;text-anchor:middle;opacity:1;fill:#000000;fill-opacity:1;stroke:#000000;stroke-width:0.447993;stroke-dasharray:none;stroke-opacity:1"
       x="155.38689"
       y="87.50457"
       id="text9"
       transform="scale(0.91797746,1.0893514)"><tspan
         id="tspan9"
         style="fill:#000000;fill-opacity:1;stroke-width:0.447993;stroke-dasharray:none"
         x="155.38689"
         y="87.50457">DevFlow</tspan></text></g></svg>
